<svg xmlns="http://www.w3.org/2000/svg" viewBox="0 0 64 64"><g data-name="Layer 2"><path fill="none" stroke="#000" stroke-linejoin="round" stroke-width="2" d="M36.88,10.73,32.38,5.33a.5.5,0,0,0-.77,0l-4.49,5.39a.2.2,0,0,1-.27,0L23.49,8.24a.2.2,0,0,0-.31.22L26,17.87h0a19,19,0,0,0,12,0h0l2.83-9.42a.2.2,0,0,0-.31-.22l-3.36,2.52A.2.2,0,0,1,36.88,10.73Z"/><path fill="none" stroke="#000" stroke-linejoin="round" stroke-width="2" d="M31.11 15.28l-1.17-1.65a1.09 1.09 0 0 1 0-1.25l1.17-1.65a1.09 1.09 0 0 1 1.77 0l1.17 1.65a1.09 1.09 0 0 1 0 1.25l-1.17 1.65A1.09 1.09 0 0 1 31.11 15.28zM32 54L16.34 38.34C3.69 25.69 19.35 10 32 22.68 44.64 10 60.3 25.7 47.67 38.34z"/><path fill="none" stroke="#000" stroke-linecap="round" stroke-linejoin="round" stroke-width="2" d="M16 28.33A7 7 0 0 1 23 22M19 34.75a7 7 0 0 1-2.06-2.25"/><rect width="64" height="64" fill="none"/></g></svg>